<svg width="32" height="32" xmlns="http://www.w3.org/2000/svg">

 <title/>
 <g>
  <title>background</title>
  <rect fill="none" id="canvas_background" height="402" width="582" y="-1" x="-1"/>
 </g>
 <g>
  <title>Layer 1</title>
  <path stroke="null" fill="#005792" id="svg_1" d="m28.685223,15.926288a12.534829,12.534829 0 0 1 -12.790642,12.257699l-2.771306,0a15.338112,15.338112 0 0 1 -1.065887,-1.172476l0.778097,-0.266472c6.949582,-2.494175 11.77805,-8.00481 11.77805,-14.421449a12.492194,12.492194 0 0 0 -0.66085,-4.039711l0,0a12.332311,12.332311 0 0 0 -1.268405,-2.718011a12.15111,12.15111 0 0 1 6.000943,10.36042z" class="cls-1"/>
  <path stroke="null" id="svg_2" d="m23.465229,4.61461a13.825986,13.825986 0 0 0 -7.165292,-1.984752a13.186828,13.186828 0 0 0 -13.455947,12.895283a12.525244,12.525244 0 0 0 3.218214,8.409967l-3.005162,3.195788a0.75129,0.75129 0 0 0 -0.156986,0.81857a0.706437,0.706437 0 0 0 0.650371,0.470958l12.74951,0a13.186828,13.186828 0 0 0 13.455947,-12.895283a12.78315,12.78315 0 0 0 -6.290655,-10.910531zm-7.165292,22.29202l-11.033877,0l2.298724,-2.478137a0.773717,0.773717 0 0 0 0,-1.121329a11.033877,11.033877 0 0 1 -3.285494,-7.849303c-0.022427,-6.212162 5.382379,-11.314209 12.020646,-11.314209a12.334618,12.334618 0 0 1 8.499673,3.363987l0,0a11.01145,11.01145 0 0 1 3.532186,8.039929c0.011213,6.257016 -5.393592,11.359062 -12.03186,11.359062z"/>
  <ellipse id="svg_3" ry="1.35" rx="1.26" cy="14.82" cx="10.32"/>
  <ellipse id="svg_4" ry="1.35" rx="1.26" cy="14.82" cx="15.37"/>
  <ellipse id="svg_5" ry="1.35" rx="1.26" cy="14.82" cx="20.42"/>
 </g>
</svg>