<svg width="48" height="48" xmlns="http://www.w3.org/2000/svg">

 <g>
  <title>background</title>
  <rect fill="none" id="canvas_background" height="402" width="582" y="-1" x="-1"/>
 </g>
 <g>
  <title>Layer 1</title>
  <path id="svg_2" d="m42,45.3l-13.3,-3.7c-1.4,0.3 -2.9,0.4 -4.7,0.4c-12.7,0 -22,-8.4 -22,-20c0,-5.4 1.9,-10.1 5.6,-13.8c4.1,-4 10,-6.2 16.4,-6.2c12.7,0 22,8.4 22,20c0,4.3 -1.4,8.5 -4,11.8l0,11.5zm-13.3,-5.7l11.3,3.1l0,-9.5l0.2,-0.3c2.5,-3.1 3.8,-6.9 3.8,-10.9c0,-10.4 -8.4,-18 -20,-18c-6,0 -11.3,2 -15,5.6c-3.3,3.3 -5,7.6 -5,12.4c0,10.4 8.4,18 20,18c1.8,0 3.2,-0.1 4.5,-0.4l0.2,0z"/>
 </g>
</svg>