<svg xmlns="http://www.w3.org/2000/svg" width="60" height="61" viewBox="0 0 60 61">
    <g fill="none" fill-rule="evenodd">
        <g>
            <g transform="translate(-1411 -340) translate(1411 340.764)">
                <circle cx="30" cy="30" r="30" fill="#FFF"/>
                <g fill="#A26BC3" fill-rule="nonzero" opacity=".697">
                    <path d="M17 34C7.626 34 0 26.374 0 17c0-.782.635-1.417 1.417-1.417s1.416.635 1.416 1.417c0 7.811 6.355 14.167 14.167 14.167 7.811 0 14.167-6.356 14.167-14.167C31.167 9.188 24.81 2.833 17 2.833c-.782 0-1.417-.634-1.417-1.416C15.583.635 16.218 0 17 0c9.374 0 17 7.626 17 17 0 9.374-7.626 17-17 17zM1.5 19c-.39 0-.78-.166-1.065-.438-.27-.287-.435-.679-.435-1.071 0-.393.165-.785.435-1.072.57-.559 1.56-.559 2.13 0 .27.287.435.68.435 1.072s-.165.784-.435 1.071C2.28 18.834 1.89 19 1.5 19zm1.423-6.12c-.764-.314-1.124-1.182-.81-1.945.316-.764 1.2-1.138 1.964-.824.764.315 1.124 1.198.81 1.961-.24.584-.795.928-1.394.928-.18 0-.375-.045-.57-.12zM5.44 7.563c-.587-.587-.587-1.535 0-2.123.586-.587 1.534-.587 2.12 0 .587.588.587 1.536 0 2.123-.3.286-.677.437-1.068.437-.375 0-.766-.15-1.052-.437zm4.674-3.49c-.315-.763.045-1.645.81-1.96.763-.313 1.647.045 1.962.808.315.763-.045 1.645-.81 1.96-.194.074-.374.119-.569.119-.584 0-1.153-.359-1.393-.927zM17.5 3c-.39 0-.78-.166-1.065-.438-.27-.287-.435-.679-.435-1.071 0-.393.165-.785.435-1.072.57-.559 1.575-.559 2.13 0 .27.287.435.68.435 1.072s-.165.784-.435 1.071C18.28 2.834 17.89 3 17.5 3zm-5.997 19c-.55 0-1.08-.294-1.344-.804-.37-.719-.07-1.593.67-1.952L16 16.737V7.455C16 6.652 16.672 6 17.5 6s1.5.652 1.5 1.455v10.181c0 .552-.321 1.055-.83 1.302l-5.999 2.91c-.214.103-.443.152-.668.152z" transform="translate(13 13.236)"/>
                </g>
            </g>
        </g>
    </g>
</svg>
