<svg width="512" height="512" xmlns="http://www.w3.org/2000/svg">

 <g>
  <title>background</title>
  <rect fill="none" id="canvas_background" height="402" width="582" y="-1" x="-1"/>
 </g>
 <g>
  <title>Layer 1</title>
  <path id="svg_2" d="m254.846156,144.029068c0,0 -16.153814,-29.999941 -16.153814,-30.76917c0,-0.769229 -29.999941,-29.99994 -30.231218,-30.18314c0.231277,0.1832 -47.460936,-18.278302 -47.692213,-18.461502c0.231277,0.1832 -47.460936,2.490887 -47.692213,2.307688c0.231277,0.183199 -41.307102,24.029306 -42.076332,24.798535c-0.769229,0.769229 -26.153794,39.999921 -26.38507,39.816721c0.231276,0.1832 -8.230246,40.95235 -8.230246,42.490809c0,1.538458 3.846147,43.846067 3.614871,43.662866c0.231276,0.183201 21.769694,44.029268 21.538418,43.846067c0.231276,0.183201 31.000446,34.798517 30.76917,34.615316c0.231276,0.183201 41.769656,43.260038 41.538379,43.076837c0.231277,0.183201 30.231217,30.183142 29.99994,29.999941c0.231277,0.183201 31.769676,27.875454 32.538905,27.875454c0.76923,0 39.230692,31.538399 38.999415,31.355197c0.231277,0.183202 21.769696,17.875474 21.538418,17.692273c0.231278,0.183201 50.231179,-38.278261 49.999901,-38.461462c0.231278,0.183201 61.000388,-56.739763 60.76911,-56.922964c0.231278,0.183201 64.846535,-69.81666 64.615256,-69.999861c0.231279,0.183201 40.2312,-72.124348 39.999921,-72.307549c0.231279,0.183201 -1.30718,-68.278202 -2.076409,-69.816661c-0.769229,-1.538458 -42.307609,-57.692193 -42.538887,-57.875393c0.231278,0.1832 -55.922457,-15.970614 -56.691686,-15.970614c-0.769229,0 -74.615237,16.153814 -74.615237,17.692272c0,1.538459 -19.99996,31.538399 -20.231238,31.3552c0.231278,0.183199 -21.307141,30.18314 -21.307141,30.18314z" stroke-opacity="null" stroke-width="null" stroke="null" fill="#f29d9d"/>
  <path fill="#000000" id="XMLID_8603_" d="m255.937,461.368c-2.652,0 -5.196,-1.054 -7.071,-2.929c-26.65,-26.65 -53.021,-50.236 -78.522,-73.046c-38.325,-34.277 -74.524,-66.653 -100.388,-100.346c-29.304,-38.173 -42.952,-74.699 -42.952,-114.948c0,-65.874 53.592,-119.467 119.466,-119.467c55.362,0 84.611,26.631 109.467,70.721c24.856,-44.09 54.105,-70.721 109.467,-70.721c65.944,0 119.594,53.593 119.594,119.467c0,40.231 -13.65,76.743 -42.958,114.903c-25.866,33.679 -62.061,66.036 -100.38,100.294c-25.547,22.839 -51.963,46.454 -78.651,73.144c-1.877,1.874 -4.42,2.928 -7.072,2.928zm-109.467,-390.736c-54.846,0 -99.466,44.621 -99.466,99.467c0,78.147 60.313,132.091 136.672,200.387c23.462,20.985 47.653,42.622 72.261,66.802c24.648,-24.219 48.886,-45.888 72.393,-66.902c76.356,-68.263 136.668,-122.181 136.668,-200.287c0,-54.846 -44.678,-99.467 -99.594,-99.467c-46.531,0 -71.896,19.322 -100.522,76.572c-1.694,3.388 -5.156,5.528 -8.944,5.528l0,0c-3.788,0 -7.25,-2.14 -8.944,-5.528c-28.627,-57.25 -53.993,-76.572 -100.524,-76.572z"/>
 </g>
</svg>