<svg width="512" height="512" xmlns="http://www.w3.org/2000/svg">

 <g>
  <title>background</title>
  <rect fill="none" id="canvas_background" height="402" width="582" y="-1" x="-1"/>
 </g>
 <g>
  <title>Layer 1</title>
  <path fill="#000000" id="XMLID_8603_" d="m255.937,461.368c-2.652,0 -5.196,-1.054 -7.071,-2.929c-26.65,-26.65 -53.021,-50.236 -78.522,-73.046c-38.325,-34.277 -74.524,-66.653 -100.388,-100.346c-29.304,-38.173 -42.952,-74.699 -42.952,-114.948c0,-65.874 53.592,-119.467 119.466,-119.467c55.362,0 84.611,26.631 109.467,70.721c24.856,-44.09 54.105,-70.721 109.467,-70.721c65.944,0 119.594,53.593 119.594,119.467c0,40.231 -13.65,76.743 -42.958,114.903c-25.866,33.679 -62.061,66.036 -100.38,100.294c-25.547,22.839 -51.963,46.454 -78.651,73.144c-1.877,1.874 -4.42,2.928 -7.072,2.928zm-109.467,-390.736c-54.846,0 -99.466,44.621 -99.466,99.467c0,78.147 60.313,132.091 136.672,200.387c23.462,20.985 47.653,42.622 72.261,66.802c24.648,-24.219 48.886,-45.888 72.393,-66.902c76.356,-68.263 136.668,-122.181 136.668,-200.287c0,-54.846 -44.678,-99.467 -99.594,-99.467c-46.531,0 -71.896,19.322 -100.522,76.572c-1.694,3.388 -5.156,5.528 -8.944,5.528l0,0c-3.788,0 -7.25,-2.14 -8.944,-5.528c-28.627,-57.25 -53.993,-76.572 -100.524,-76.572z"/>
 </g>
</svg>