<svg width="1440" height="1024" viewBox="0 0 1440 1024" fill="none" xmlns="http://www.w3.org/2000/svg">
<g clip-path="url(#clip0)">
<rect width="1440" height="1024" fill="white"/>
<g style="mix-blend-mode:multiply">
<path fill-rule="evenodd" clip-rule="evenodd" d="M975.817 -258.999C1038.35 -259.194 1094.27 -223.238 1146.12 -188.279C1195.46 -155.007 1239.1 -114.029 1267.98 -61.9951C1296.59 -10.4644 1307.66 47.79 1309.85 106.687C1312.11 167.17 1307.6 228.505 1280.85 282.797C1253.17 338.955 1209.21 385.79 1156.04 418.837C1101.89 452.489 1039.41 476.93 975.817 472.367C913.763 467.915 858.829 432.473 809.934 394.004C765.33 358.91 737.385 309.858 707.749 261.456C677.392 211.876 634.924 164.815 634.015 106.687C633.103 48.3763 673.394 -0.578857 702.864 -50.9024C732.17 -100.945 760.013 -152.057 806.131 -187.217C855.817 -225.098 913.338 -258.804 975.817 -258.999Z" fill="#ECBFAE"/>
</g>
<g style="mix-blend-mode:multiply">
<path fill-rule="evenodd" clip-rule="evenodd" d="M1266.56 268.36C1326.04 270.003 1387.98 261.466 1440.86 288.763C1494.64 316.527 1529.1 369.236 1561.28 420.5C1594.38 473.245 1631.76 528.398 1630.34 590.655C1628.93 652.571 1587.24 704.379 1553.62 756.39C1521.4 806.226 1490.98 860.823 1438.18 887.909C1386.18 914.585 1324.91 906.965 1266.56 903.651C1210.89 900.49 1157.31 890.456 1105.84 869.034C1048.86 845.321 985.33 824.176 951.522 772.541C917.339 720.333 918.706 652.87 923.566 590.655C928.19 531.458 951.186 477.08 978.71 424.467C1007.18 370.04 1032.62 308.264 1086.61 278.982C1140.35 249.841 1205.45 266.673 1266.56 268.36Z" fill="#E3EEC4"/>
</g>
<g style="mix-blend-mode:multiply">
<path fill-rule="evenodd" clip-rule="evenodd" d="M191.572 285.682C251.269 291.199 296.114 338.293 346.727 370.426C395.222 401.213 448.326 425.141 483.171 470.808C520.568 519.82 553.991 577.553 551.778 639.163C549.58 700.314 503.296 748.505 471.318 800.675C440.144 851.531 418.802 913.489 366.285 941.776C314.045 969.914 250.893 952.689 191.572 951.353C133.562 950.046 72.761 960.898 21.3447 934.005C-30.7449 906.759 -62.7484 853.873 -92.1348 802.961C-121.519 752.053 -143.879 697.733 -148.836 639.163C-154.062 577.423 -151.601 512.573 -121.285 458.535C-90.8352 404.261 -35.5445 370.229 18.9269 340.134C72.6597 310.446 130.443 280.034 191.572 285.682Z" fill="#D4E7F7"/>
</g>
<g style="mix-blend-mode:multiply">
<path fill-rule="evenodd" clip-rule="evenodd" d="M708.69 218.427C767.262 223.654 820.126 251.051 869.851 282.443C918.128 312.919 963.755 348.397 992.608 397.661C1021.56 447.086 1033.84 504.306 1033.34 561.582C1032.83 618.555 1016.35 673.464 989.73 723.84C962.432 775.504 927.195 823.342 878.204 855.188C827.846 887.924 768.714 908.679 708.69 906.53C649.55 904.413 598.314 871.039 546.041 843.298C492.039 814.64 427.872 794.305 397.375 741.319C366.884 688.345 383.435 622.702 383.889 561.582C384.341 500.906 374.13 438.249 400.038 383.381C426.787 326.735 474.771 281.644 530.02 252.116C584.398 223.055 647.278 212.947 708.69 218.427Z" fill="#FDE1B9"/>
</g>
<g style="mix-blend-mode:multiply">
<path fill-rule="evenodd" clip-rule="evenodd" d="M394.815 -179.779C451.699 -174.905 507.38 -162.079 556.576 -133.108C605.52 -104.287 646.469 -63.8069 675.079 -14.7398C703.761 34.4507 722.113 90.1703 719.942 147.071C717.81 202.975 687.588 251.655 663 301.907C636.761 355.533 618.857 416.463 570.799 451.884C521.027 488.568 456.644 499.201 394.815 499.572C332.768 499.944 269.498 488.023 217.608 454.002C166.925 420.772 133.646 367.463 108.924 312.13C85.7541 260.272 82.2974 203.84 80.4735 147.071C78.5983 88.7042 74.6525 29.2468 98.1175 -24.2279C122.872 -80.6416 161.653 -133.668 216.215 -162.274C270.112 -190.531 334.182 -184.975 394.815 -179.779Z" fill="#FFF6C7"/>
</g>
</g>
<defs>
<clipPath id="clip0">
<rect width="1440" height="1024" fill="white"/>
</clipPath>
</defs>
</svg>
