<svg width="64" height="64" xmlns="http://www.w3.org/2000/svg">

 <title/>
 <g>
  <title>background</title>
  <rect fill="none" id="canvas_background" height="402" width="582" y="-1" x="-1"/>
 </g>
 <g>
  <title>Layer 1</title>
  <path stroke-width="4" stroke-linejoin="round" stroke-linecap="round" stroke="#d13d61" fill="none" id="svg_1" d="m11.821932,44.992253a24.53,24.53 0 0 1 -2,-22.35a22.41,22.41 0 0 1 13.21,-13c17.24,-6.31 33.39,6.56 32.94,23c-0.36,12.87 -11.73,23.35 -24.56,23.35l-20.87,0s6.16,-2.83 1.28,-11z" class="cls-1"/>
  <path stroke="#d13d61" stroke-width="4" stroke-linejoin="round" stroke-linecap="round" fill="none" id="svg_2" d="m43.167442,22.392257l0,0a7.883665,7.883665 0 0 0 -11.073437,-0.077799l-0.090766,-0.090766a7.883665,7.883665 0 0 0 -11.164203,0l0,0a7.883665,7.883665 0 0 0 0,11.164203l9.698982,9.698982l0.635361,0.635361a1.296655,1.296655 0 0 0 1.815317,0l10.165778,-10.165778a7.883665,7.883665 0 0 0 0.012967,-11.164203z" class="cls-1"/>
 </g>
</svg>