<svg width="512" height="512" xmlns="http://www.w3.org/2000/svg">

 <g>
  <title>background</title>
  <rect fill="none" id="canvas_background" height="402" width="582" y="-1" x="-1"/>
 </g>
 <g>
  <title>Layer 1</title>
  <path fill="#ff5656" id="svg_1" d="m340.8,98.4c50.7,0 91.9,41.3 91.9,92.3c0,26.2 -10.9,49.8 -28.3,66.6l-148.4,149.8l-151,-152.5c-15.8,-16.6 -25.6,-39.1 -25.6,-63.9c0,-51 41.1,-92.3 91.9,-92.3c38.2,0 70.9,23.4 84.8,56.8c13.7,-33.3 46.5,-56.8 84.7,-56.8m0,-15.4c-33.8,0 -64.8,15.8 -84.8,41.8c-20,-26 -51,-41.8 -84.8,-41.8c-59.1,0 -107.2,48.3 -107.2,107.7c0,27.9 10.6,54.4 29.9,74.6l151.2,152.7l10.9,11l10.9,-11l148.3,-149.8c21,-20.3 32.8,-47.9 32.8,-77.5c0,-59.4 -48.1,-107.7 -107.2,-107.7l0,0z"/>
  <path id="svg_2" d="m256.34261,139.812547c0,0 -42.483578,-38.372264 -42.554277,-38.400133c0.070698,0.027868 -53.376384,-8.879979 -53.447083,-8.907847c0.070699,0.027868 -41.727661,12.36181 -45.838975,15.787905c-4.111314,3.426095 -32.890512,45.224454 -32.890512,45.224454c0,0 -7.537409,61.669711 -7.608109,61.641844c0.0707,0.027867 24.738584,45.252321 24.667885,45.224455c0.0707,0.027866 154.244976,156.943019 154.174279,156.915155c0.070698,0.027864 144.651908,-142.497689 144.581212,-142.525555c0.070696,0.027866 41.869055,-54.104436 41.79836,-54.132302c0.070695,0.027867 -4.725838,-67.123596 -4.796533,-67.151464c0.070695,0.027867 -43.098102,-48.622682 -43.168798,-48.65055c0.070696,0.027868 -54.061606,-12.306074 -54.132302,-12.333942c0.070697,0.027868 -63.654671,22.640095 -63.654671,22.640095c0,0 -17.130475,24.667884 -17.130475,24.667884z" stroke-opacity="null" stroke-width="null" stroke="null" fill="#ff5656"/>
 </g>
</svg>